<mxfile host="app.diagrams.net" modified="2024-06-19T15:00:50.541Z" agent="Mozilla/5.0 (Macintosh; Intel Mac OS X 10_15_7) AppleWebKit/537.36 (KHTML, like Gecko) Chrome/125.0.0.0 Safari/537.36" etag="Polm67HO-d3M56Whvcy4" version="24.5.5" type="github">
  <diagram name="Page-1" id="f1b7ffb7-ca1e-a977-7cf5-a751b3c06c05">
    <mxGraphModel dx="1100" dy="866" grid="1" gridSize="10" guides="1" tooltips="1" connect="1" arrows="1" fold="1" page="1" pageScale="1" pageWidth="826" pageHeight="1169" background="#ffffff" math="0" shadow="0">
      <root>
        <mxCell id="0" />
        <mxCell id="1" parent="0" />
        <mxCell id="kEkzy4O3QpLZJ2S9Wlrk-61" value="" style="verticalLabelPosition=bottom;verticalAlign=top;html=1;shadow=0;dashed=0;strokeWidth=1;shape=mxgraph.android.phone2;strokeColor=#c0c0c0;" vertex="1" parent="1">
          <mxGeometry x="195" y="120" width="470" height="810" as="geometry" />
        </mxCell>
        <mxCell id="kEkzy4O3QpLZJ2S9Wlrk-63" value="UniVoice" style="shape=rectangle;strokeColor=none;fillColor=none;linkText=;fontSize=17;fontColor=#0000ff;fontStyle=4;html=1;align=center;" vertex="1" parent="1">
          <mxGeometry x="350" y="210" width="150" height="30" as="geometry" />
        </mxCell>
        <mxCell id="kEkzy4O3QpLZJ2S9Wlrk-64" value="" style="strokeColor=#999999;verticalLabelPosition=bottom;shadow=0;dashed=0;verticalAlign=top;strokeWidth=2;html=1;shape=mxgraph.mockup.misc.registeredIcon;" vertex="1" parent="1">
          <mxGeometry x="240" y="270" width="40" height="35" as="geometry" />
        </mxCell>
        <mxCell id="kEkzy4O3QpLZJ2S9Wlrk-65" value="2066" style="shape=rectangle;strokeColor=none;fillColor=none;linkText=;fontSize=17;fontColor=#CC6600;fontStyle=4;html=1;align=center;" vertex="1" parent="1">
          <mxGeometry x="230" y="260" width="150" height="25" as="geometry" />
        </mxCell>
        <mxCell id="kEkzy4O3QpLZJ2S9Wlrk-66" style="edgeStyle=orthogonalEdgeStyle;rounded=0;orthogonalLoop=1;jettySize=auto;html=1;exitX=0.5;exitY=1;exitDx=0;exitDy=0;" edge="1" parent="1" source="kEkzy4O3QpLZJ2S9Wlrk-65" target="kEkzy4O3QpLZJ2S9Wlrk-65">
          <mxGeometry relative="1" as="geometry" />
        </mxCell>
        <mxCell id="kEkzy4O3QpLZJ2S9Wlrk-68" value="WithDraw" style="strokeWidth=1;shadow=0;dashed=0;align=center;html=1;shape=mxgraph.mockup.buttons.button;strokeColor=#3700CC;fontColor=#ffffff;mainText=;buttonStyle=round;fontSize=17;fontStyle=1;fillColor=#6a00ff;whiteSpace=wrap;" vertex="1" parent="1">
          <mxGeometry x="280" y="285" width="100" height="25" as="geometry" />
        </mxCell>
        <mxCell id="kEkzy4O3QpLZJ2S9Wlrk-69" value="0x2ab21dde" style="shape=rectangle;strokeColor=none;fillColor=none;linkText=;fontSize=17;fontColor=#CC6600;fontStyle=4;html=1;align=center;" vertex="1" parent="1">
          <mxGeometry x="460" y="250" width="150" height="30" as="geometry" />
        </mxCell>
        <mxCell id="kEkzy4O3QpLZJ2S9Wlrk-72" value="" style="strokeWidth=1;html=1;shadow=0;dashed=0;shape=mxgraph.android.rect;rounded=1;fillColor=#f8cecc;strokeColor=#b85450;gradientColor=#ea6b66;" vertex="1" parent="1">
          <mxGeometry x="250" y="330" width="100" height="30" as="geometry" />
        </mxCell>
        <mxCell id="kEkzy4O3QpLZJ2S9Wlrk-73" value="Co-creator" style="strokeWidth=1;html=1;shadow=0;dashed=0;shape=mxgraph.android.spinner2;fontStyle=0;fontColor=#666666;align=center;verticalAlign=middle;strokeColor=#cccccc;fillColor=#cccccc;" vertex="1" parent="kEkzy4O3QpLZJ2S9Wlrk-72">
          <mxGeometry x="2.564102564102564" y="4.285714285714286" width="94.01709401709401" height="21.428571428571427" as="geometry" />
        </mxCell>
        <mxCell id="kEkzy4O3QpLZJ2S9Wlrk-74" value="" style="strokeWidth=1;html=1;shadow=0;dashed=0;shape=mxgraph.android.rect;rounded=1;fillColor=#d5e8d4;strokeColor=#82b366;gradientColor=#97d077;" vertex="1" parent="1">
          <mxGeometry x="500" y="330" width="100" height="30" as="geometry" />
        </mxCell>
        <mxCell id="kEkzy4O3QpLZJ2S9Wlrk-75" value="public ctr" style="strokeWidth=1;html=1;shadow=0;dashed=0;shape=mxgraph.android.spinner2;fontStyle=0;fontColor=#666666;align=center;verticalAlign=middle;strokeColor=#cccccc;fillColor=#cccccc;" vertex="1" parent="kEkzy4O3QpLZJ2S9Wlrk-74">
          <mxGeometry x="2.564102564102564" y="4.285714285714286" width="94.01709401709401" height="21.428571428571427" as="geometry" />
        </mxCell>
        <mxCell id="kEkzy4O3QpLZJ2S9Wlrk-76" value="" style="strokeWidth=1;html=1;shadow=0;dashed=0;shape=mxgraph.android.rect;rounded=1;fillColor=#ccf2ff;strokeColor=#88c5f5;" vertex="1" parent="1">
          <mxGeometry x="375" y="330" width="100" height="30" as="geometry" />
        </mxCell>
        <mxCell id="kEkzy4O3QpLZJ2S9Wlrk-77" value="private ctr" style="strokeWidth=1;html=1;shadow=0;dashed=0;shape=mxgraph.android.spinner2;fontStyle=0;fontColor=#666666;align=center;verticalAlign=middle;strokeColor=#cccccc;fillColor=#cccccc;" vertex="1" parent="kEkzy4O3QpLZJ2S9Wlrk-76">
          <mxGeometry x="2.564102564102564" y="4.285714285714286" width="94.01709401709401" height="21.428571428571427" as="geometry" />
        </mxCell>
        <mxCell id="kEkzy4O3QpLZJ2S9Wlrk-78" value="" style="strokeWidth=1;html=1;shadow=0;dashed=0;shape=mxgraph.android.rrect;rSize=0;fillColor=#eeeeee;strokeColor=none;" vertex="1" parent="1">
          <mxGeometry x="250" y="840" width="360" height="30" as="geometry" />
        </mxCell>
        <mxCell id="kEkzy4O3QpLZJ2S9Wlrk-79" value="my voice" style="strokeWidth=1;html=1;shadow=0;dashed=0;shape=mxgraph.android.anchor;fontStyle=1;fillColor=#f8cecc;gradientColor=#ea6b66;strokeColor=#b85450;" vertex="1" parent="kEkzy4O3QpLZJ2S9Wlrk-78">
          <mxGeometry x="-20" width="110" height="30" as="geometry" />
        </mxCell>
        <mxCell id="kEkzy4O3QpLZJ2S9Wlrk-80" value="friend" style="strokeWidth=1;html=1;shadow=0;dashed=0;shape=mxgraph.android.rrect;rSize=0;fontStyle=1;fillColor=#44c5f5;strokeColor=none;fontColor=#ffffff;" vertex="1" parent="kEkzy4O3QpLZJ2S9Wlrk-78">
          <mxGeometry x="90" width="90" height="30" as="geometry" />
        </mxCell>
        <mxCell id="kEkzy4O3QpLZJ2S9Wlrk-81" value="" style="strokeWidth=1;html=1;shadow=0;dashed=0;shape=mxgraph.android.rrect;rSize=0;fillColor=#33b5e5;strokeColor=none;" vertex="1" parent="kEkzy4O3QpLZJ2S9Wlrk-80">
          <mxGeometry y="27" width="90" height="3" as="geometry" />
        </mxCell>
        <mxCell id="kEkzy4O3QpLZJ2S9Wlrk-82" value="task" style="strokeWidth=1;html=1;shadow=0;dashed=0;shape=mxgraph.android.anchor;fontStyle=1;fontColor=#666666;" vertex="1" parent="kEkzy4O3QpLZJ2S9Wlrk-78">
          <mxGeometry x="180" width="90" height="30" as="geometry" />
        </mxCell>
        <mxCell id="kEkzy4O3QpLZJ2S9Wlrk-83" value="shop" style="strokeWidth=1;html=1;shadow=0;dashed=0;shape=mxgraph.android.anchor;fontStyle=1;fontColor=#666666;" vertex="1" parent="kEkzy4O3QpLZJ2S9Wlrk-78">
          <mxGeometry x="270" width="90" height="30" as="geometry" />
        </mxCell>
        <mxCell id="kEkzy4O3QpLZJ2S9Wlrk-84" value="" style="shape=line;strokeColor=#666666;direction=south;" vertex="1" parent="kEkzy4O3QpLZJ2S9Wlrk-78">
          <mxGeometry x="255.89189189189187" y="5" width="19.45945945945946" height="20" as="geometry" />
        </mxCell>
        <mxCell id="kEkzy4O3QpLZJ2S9Wlrk-85" value="" style="verticalLabelPosition=bottom;verticalAlign=top;html=1;shadow=0;dashed=0;strokeWidth=1;shape=mxgraph.android.phone2;strokeColor=#c0c0c0;" vertex="1" parent="1">
          <mxGeometry x="60" y="1030" width="330" height="650" as="geometry" />
        </mxCell>
        <mxCell id="kEkzy4O3QpLZJ2S9Wlrk-87" value="UniVoice" style="shape=rectangle;strokeColor=none;fillColor=none;linkText=;fontSize=17;fontColor=#0000ff;fontStyle=4;html=1;align=center;" vertex="1" parent="1">
          <mxGeometry x="150" y="1090" width="150" height="30" as="geometry" />
        </mxCell>
        <mxCell id="kEkzy4O3QpLZJ2S9Wlrk-88" value="" style="strokeWidth=1;html=1;shadow=0;dashed=0;shape=mxgraph.android.rrect;rSize=0;fillColor=#eeeeee;strokeColor=none;" vertex="1" parent="1">
          <mxGeometry x="90" y="1580" width="270" height="30" as="geometry" />
        </mxCell>
        <mxCell id="kEkzy4O3QpLZJ2S9Wlrk-89" value="&lt;font color=&quot;#ff3399&quot;&gt;my voice&lt;/font&gt;" style="strokeWidth=1;html=1;shadow=0;dashed=0;shape=mxgraph.android.anchor;fontStyle=1;fillColor=#66B2FF;gradientColor=#7ea6e0;strokeColor=#6c8ebf;" vertex="1" parent="kEkzy4O3QpLZJ2S9Wlrk-88">
          <mxGeometry x="-14.999999999999998" width="82.5" height="30" as="geometry" />
        </mxCell>
        <mxCell id="kEkzy4O3QpLZJ2S9Wlrk-90" value="friend" style="strokeWidth=1;html=1;shadow=0;dashed=0;shape=mxgraph.android.rrect;rSize=0;fontStyle=1;" vertex="1" parent="kEkzy4O3QpLZJ2S9Wlrk-88">
          <mxGeometry x="67.5" width="67.5" height="30" as="geometry" />
        </mxCell>
        <mxCell id="kEkzy4O3QpLZJ2S9Wlrk-91" value="" style="strokeWidth=1;html=1;shadow=0;dashed=0;shape=mxgraph.android.rrect;rSize=0;fillColor=#33b5e5;strokeColor=none;" vertex="1" parent="kEkzy4O3QpLZJ2S9Wlrk-90">
          <mxGeometry y="27" width="67.5" height="3" as="geometry" />
        </mxCell>
        <mxCell id="kEkzy4O3QpLZJ2S9Wlrk-92" value="task" style="strokeWidth=1;html=1;shadow=0;dashed=0;shape=mxgraph.android.anchor;fontStyle=1;fontColor=#666666;" vertex="1" parent="kEkzy4O3QpLZJ2S9Wlrk-88">
          <mxGeometry x="135" width="67.5" height="30" as="geometry" />
        </mxCell>
        <mxCell id="kEkzy4O3QpLZJ2S9Wlrk-93" value="shop" style="strokeWidth=1;html=1;shadow=0;dashed=0;shape=mxgraph.android.anchor;fontStyle=1;fontColor=#666666;" vertex="1" parent="kEkzy4O3QpLZJ2S9Wlrk-88">
          <mxGeometry x="202.5" width="67.5" height="30" as="geometry" />
        </mxCell>
        <mxCell id="kEkzy4O3QpLZJ2S9Wlrk-94" value="" style="shape=line;strokeColor=#666666;direction=south;" vertex="1" parent="kEkzy4O3QpLZJ2S9Wlrk-88">
          <mxGeometry x="191.9189189189189" y="5" width="14.594594594594597" height="20" as="geometry" />
        </mxCell>
        <mxCell id="kEkzy4O3QpLZJ2S9Wlrk-95" value="" style="strokeWidth=1;html=1;shadow=0;dashed=0;shape=mxgraph.android.quick_contact;sketch=0;" vertex="1" parent="1">
          <mxGeometry x="120" y="1169" width="200" height="211" as="geometry" />
        </mxCell>
        <mxCell id="kEkzy4O3QpLZJ2S9Wlrk-96" value="Name" style="strokeWidth=1;html=1;shadow=0;dashed=0;shape=mxgraph.android.anchor;rSize=0;fontStyle=1;fontColor=#FFFFFF;whiteSpace=wrap;" vertex="1" parent="kEkzy4O3QpLZJ2S9Wlrk-95">
          <mxGeometry y="83.12121212121212" width="200.00000000000003" height="23.01818181818182" as="geometry" />
        </mxCell>
        <mxCell id="kEkzy4O3QpLZJ2S9Wlrk-97" value="Item 1" style="strokeWidth=1;html=1;shadow=0;dashed=0;shape=mxgraph.android.anchor;rSize=0;align=left;spacingLeft=10;whiteSpace=wrap;" vertex="1" parent="kEkzy4O3QpLZJ2S9Wlrk-95">
          <mxGeometry y="138.10909090909092" width="160" height="35.806060606060605" as="geometry" />
        </mxCell>
        <mxCell id="kEkzy4O3QpLZJ2S9Wlrk-98" value="Item 2" style="strokeWidth=1;html=1;shadow=0;dashed=0;shape=mxgraph.android.anchor;rSize=0;align=left;spacingLeft=10;whiteSpace=wrap;" vertex="1" parent="kEkzy4O3QpLZJ2S9Wlrk-95">
          <mxGeometry y="173.9151515151515" width="160" height="35.806060606060605" as="geometry" />
        </mxCell>
        <mxCell id="kEkzy4O3QpLZJ2S9Wlrk-99" value="" style="strokeColor=#999999;verticalLabelPosition=bottom;shadow=0;dashed=0;verticalAlign=top;strokeWidth=2;html=1;shape=mxgraph.mockup.misc.shareIcon;" vertex="1" parent="kEkzy4O3QpLZJ2S9Wlrk-95">
          <mxGeometry x="160" y="141.01" width="30" height="30" as="geometry" />
        </mxCell>
        <mxCell id="kEkzy4O3QpLZJ2S9Wlrk-100" value="" style="strokeColor=#999999;verticalLabelPosition=bottom;shadow=0;dashed=0;verticalAlign=top;strokeWidth=2;html=1;shape=mxgraph.mockup.misc.shareIcon;" vertex="1" parent="kEkzy4O3QpLZJ2S9Wlrk-95">
          <mxGeometry x="160" y="176.81999999999994" width="30" height="30" as="geometry" />
        </mxCell>
        <mxCell id="kEkzy4O3QpLZJ2S9Wlrk-101" value="" style="verticalLabelPosition=bottom;verticalAlign=top;html=1;shadow=0;dashed=0;strokeWidth=1;shape=mxgraph.android.phone2;strokeColor=#c0c0c0;" vertex="1" parent="1">
          <mxGeometry x="460" y="1030" width="330" height="650" as="geometry" />
        </mxCell>
        <mxCell id="kEkzy4O3QpLZJ2S9Wlrk-102" value="" style="strokeWidth=1;html=1;shadow=0;dashed=0;shape=mxgraph.android.rrect;rSize=0;fillColor=#eeeeee;strokeColor=none;" vertex="1" parent="1">
          <mxGeometry x="490" y="1590" width="270" height="30" as="geometry" />
        </mxCell>
        <mxCell id="kEkzy4O3QpLZJ2S9Wlrk-103" value="my voice" style="strokeWidth=1;html=1;shadow=0;dashed=0;shape=mxgraph.android.anchor;fontStyle=1;fillColor=#66B2FF;gradientColor=#7ea6e0;strokeColor=#6c8ebf;" vertex="1" parent="kEkzy4O3QpLZJ2S9Wlrk-102">
          <mxGeometry x="-14.999999999999998" width="82.5" height="30" as="geometry" />
        </mxCell>
        <mxCell id="kEkzy4O3QpLZJ2S9Wlrk-104" value="&lt;font color=&quot;#c41212&quot;&gt;friend&lt;/font&gt;" style="strokeWidth=1;html=1;shadow=0;dashed=0;shape=mxgraph.android.rrect;rSize=0;fontStyle=1;" vertex="1" parent="kEkzy4O3QpLZJ2S9Wlrk-102">
          <mxGeometry x="67.5" width="67.5" height="30" as="geometry" />
        </mxCell>
        <mxCell id="kEkzy4O3QpLZJ2S9Wlrk-105" value="" style="strokeWidth=1;html=1;shadow=0;dashed=0;shape=mxgraph.android.rrect;rSize=0;fillColor=#33b5e5;strokeColor=none;" vertex="1" parent="kEkzy4O3QpLZJ2S9Wlrk-104">
          <mxGeometry y="27" width="67.5" height="3" as="geometry" />
        </mxCell>
        <mxCell id="kEkzy4O3QpLZJ2S9Wlrk-106" value="task" style="strokeWidth=1;html=1;shadow=0;dashed=0;shape=mxgraph.android.anchor;fontStyle=1;fontColor=#666666;" vertex="1" parent="kEkzy4O3QpLZJ2S9Wlrk-102">
          <mxGeometry x="135" width="67.5" height="30" as="geometry" />
        </mxCell>
        <mxCell id="kEkzy4O3QpLZJ2S9Wlrk-107" value="shop" style="strokeWidth=1;html=1;shadow=0;dashed=0;shape=mxgraph.android.anchor;fontStyle=1;fontColor=#666666;" vertex="1" parent="kEkzy4O3QpLZJ2S9Wlrk-102">
          <mxGeometry x="202.5" width="67.5" height="30" as="geometry" />
        </mxCell>
        <mxCell id="kEkzy4O3QpLZJ2S9Wlrk-108" value="" style="shape=line;strokeColor=#666666;direction=south;" vertex="1" parent="kEkzy4O3QpLZJ2S9Wlrk-102">
          <mxGeometry x="191.9189189189189" y="5" width="14.594594594594597" height="20" as="geometry" />
        </mxCell>
        <mxCell id="kEkzy4O3QpLZJ2S9Wlrk-109" value="" style="verticalLabelPosition=bottom;shadow=0;dashed=0;align=center;html=1;verticalAlign=top;strokeWidth=1;shape=mxgraph.mockup.containers.videoPlayer;strokeColor=#6c8ebf;strokeColor2=#008cff;strokeColor3=#c4c4c4;textColor=#666666;fillColor2=#008cff;barHeight=30;barPos=20;fillColor=#dae8fc;" vertex="1" parent="1">
          <mxGeometry x="275" y="450" width="300" height="200" as="geometry" />
        </mxCell>
        <mxCell id="kEkzy4O3QpLZJ2S9Wlrk-110" value="http://www.tg.xxxx" style="strokeWidth=1;shadow=0;dashed=0;align=center;html=1;shape=mxgraph.mockup.containers.rrect;rSize=0;strokeColor=#666666;fontColor=#666666;fontSize=17;verticalAlign=top;whiteSpace=wrap;fillColor=#ffffff;spacingTop=32;" vertex="1" parent="1">
          <mxGeometry x="490" y="1320" width="280" height="170" as="geometry" />
        </mxCell>
        <mxCell id="kEkzy4O3QpLZJ2S9Wlrk-111" value="Share Link" style="strokeWidth=1;shadow=0;dashed=0;align=center;html=1;shape=mxgraph.mockup.containers.rrect;rSize=0;fontSize=17;fontColor=#666666;strokeColor=#666666;align=left;spacingLeft=8;fillColor=none;resizeWidth=1;whiteSpace=wrap;" vertex="1" parent="kEkzy4O3QpLZJ2S9Wlrk-110">
          <mxGeometry width="280" height="30" relative="1" as="geometry" />
        </mxCell>
        <mxCell id="kEkzy4O3QpLZJ2S9Wlrk-112" value="" style="shape=ellipse;strokeColor=#008cff;resizable=0;fillColor=none;html=1;" vertex="1" parent="kEkzy4O3QpLZJ2S9Wlrk-111">
          <mxGeometry x="1" y="0.5" width="20" height="20" relative="1" as="geometry">
            <mxPoint x="-25" y="-10" as="offset" />
          </mxGeometry>
        </mxCell>
        <mxCell id="kEkzy4O3QpLZJ2S9Wlrk-113" value="Invite frends" style="strokeWidth=1;shadow=0;dashed=0;align=center;html=1;shape=mxgraph.mockup.containers.rrect;rSize=0;fontSize=16;fontColor=#666666;strokeColor=#c4c4c4;whiteSpace=wrap;fillColor=none;" vertex="1" parent="kEkzy4O3QpLZJ2S9Wlrk-110">
          <mxGeometry x="0.25" y="1" width="209.75" height="25" relative="1" as="geometry">
            <mxPoint x="-45" y="-33" as="offset" />
          </mxGeometry>
        </mxCell>
        <mxCell id="kEkzy4O3QpLZJ2S9Wlrk-115" value="UniVoice" style="shape=rectangle;strokeColor=none;fillColor=none;linkText=;fontSize=17;fontColor=#0000ff;fontStyle=4;html=1;align=center;" vertex="1" parent="1">
          <mxGeometry x="550" y="1090" width="150" height="30" as="geometry" />
        </mxCell>
        <mxCell id="kEkzy4O3QpLZJ2S9Wlrk-116" value="" style="verticalLabelPosition=bottom;verticalAlign=top;html=1;shadow=0;dashed=0;strokeWidth=1;shape=mxgraph.android.phone2;strokeColor=#c0c0c0;" vertex="1" parent="1">
          <mxGeometry x="70" y="1730" width="330" height="650" as="geometry" />
        </mxCell>
        <mxCell id="kEkzy4O3QpLZJ2S9Wlrk-125" value="UniVoice" style="shape=rectangle;strokeColor=none;fillColor=none;linkText=;fontSize=17;fontColor=#0000ff;fontStyle=4;html=1;align=center;" vertex="1" parent="1">
          <mxGeometry x="160" y="1810" width="150" as="geometry" />
        </mxCell>
        <mxCell id="kEkzy4O3QpLZJ2S9Wlrk-126" value="" style="strokeWidth=1;html=1;shadow=0;dashed=0;shape=mxgraph.android.rrect;rSize=0;fillColor=#eeeeee;strokeColor=none;" vertex="1" parent="1">
          <mxGeometry x="100" y="2290" width="270" height="30" as="geometry" />
        </mxCell>
        <mxCell id="kEkzy4O3QpLZJ2S9Wlrk-127" value="my voice" style="strokeWidth=1;html=1;shadow=0;dashed=0;shape=mxgraph.android.anchor;fontStyle=1;fillColor=#66B2FF;gradientColor=#7ea6e0;strokeColor=#6c8ebf;" vertex="1" parent="kEkzy4O3QpLZJ2S9Wlrk-126">
          <mxGeometry x="-14.999999999999998" width="82.5" height="30" as="geometry" />
        </mxCell>
        <mxCell id="kEkzy4O3QpLZJ2S9Wlrk-128" value="friend" style="strokeWidth=1;html=1;shadow=0;dashed=0;shape=mxgraph.android.rrect;rSize=0;fontStyle=1;strokeColor=none;fillColor=default;" vertex="1" parent="kEkzy4O3QpLZJ2S9Wlrk-126">
          <mxGeometry x="67.5" width="67.5" height="30" as="geometry" />
        </mxCell>
        <mxCell id="kEkzy4O3QpLZJ2S9Wlrk-129" value="" style="strokeWidth=1;html=1;shadow=0;dashed=0;shape=mxgraph.android.rrect;rSize=0;fillColor=#33b5e5;strokeColor=none;" vertex="1" parent="kEkzy4O3QpLZJ2S9Wlrk-128">
          <mxGeometry y="27" width="67.5" height="3" as="geometry" />
        </mxCell>
        <mxCell id="kEkzy4O3QpLZJ2S9Wlrk-130" value="&lt;font color=&quot;#c41a1a&quot;&gt;task&lt;/font&gt;" style="strokeWidth=1;html=1;shadow=0;dashed=0;shape=mxgraph.android.anchor;fontStyle=1;fontColor=#666666;" vertex="1" parent="kEkzy4O3QpLZJ2S9Wlrk-126">
          <mxGeometry x="135" width="67.5" height="30" as="geometry" />
        </mxCell>
        <mxCell id="kEkzy4O3QpLZJ2S9Wlrk-131" value="shop" style="strokeWidth=1;html=1;shadow=0;dashed=0;shape=mxgraph.android.anchor;fontStyle=1;fontColor=#666666;" vertex="1" parent="kEkzy4O3QpLZJ2S9Wlrk-126">
          <mxGeometry x="202.5" width="67.5" height="30" as="geometry" />
        </mxCell>
        <mxCell id="kEkzy4O3QpLZJ2S9Wlrk-132" value="" style="shape=line;strokeColor=#666666;direction=south;" vertex="1" parent="kEkzy4O3QpLZJ2S9Wlrk-126">
          <mxGeometry x="191.9189189189189" y="5" width="14.594594594594597" height="20" as="geometry" />
        </mxCell>
        <mxCell id="kEkzy4O3QpLZJ2S9Wlrk-133" value="Epic link" style="html=1;fillColor=none;strokeColor=none;fontSize=11;align=left;fontColor=#596780;whiteSpace=wrap;sketch=1;hachureGap=4;pointerEvents=0;fontFamily=Architects Daughter;fontSource=https%3A%2F%2Ffonts.googleapis.com%2Fcss%3Ffamily%3DArchitects%2BDaughter;" vertex="1" parent="1">
          <mxGeometry x="90" y="1840" width="150" height="20" as="geometry" />
        </mxCell>
        <mxCell id="kEkzy4O3QpLZJ2S9Wlrk-134" value="Vertiga: Misc" style="rounded=1;arcSize=9;fillColor=#ffffff;strokeColor=#4C9AFF;html=1;strokeWidth=2;spacingLeft=5;fontColor=#000000;align=left;sketch=1;hachureGap=4;pointerEvents=0;fontFamily=Architects Daughter;fontSource=https%3A%2F%2Ffonts.googleapis.com%2Fcss%3Ffamily%3DArchitects%2BDaughter;fontSize=20;" vertex="1" parent="1">
          <mxGeometry x="90" y="1865" width="260" height="33" as="geometry" />
        </mxCell>
        <mxCell id="kEkzy4O3QpLZJ2S9Wlrk-135" value="" style="html=1;shadow=0;dashed=0;shape=mxgraph.atlassian.close;fillColor=#97A0AF;strokeColor=none;sketch=0;hachureGap=4;pointerEvents=0;fontFamily=Architects Daughter;fontSource=https%3A%2F%2Ffonts.googleapis.com%2Fcss%3Ffamily%3DArchitects%2BDaughter;fontSize=20;" vertex="1" parent="kEkzy4O3QpLZJ2S9Wlrk-134">
          <mxGeometry x="1" y="0.5" width="14" height="14" relative="1" as="geometry">
            <mxPoint x="-28" y="-7" as="offset" />
          </mxGeometry>
        </mxCell>
        <mxCell id="kEkzy4O3QpLZJ2S9Wlrk-136" value="" style="rounded=1;fillColor=#ffffff;strokeColor=#DFE1E5;shadow=1;arcSize=1;fontSize=12;fontColor=#596780;align=center;html=1;verticalAlign=top;spacingTop=5;sketch=1;hachureGap=4;pointerEvents=0;fontFamily=Architects Daughter;fontSource=https%3A%2F%2Ffonts.googleapis.com%2Fcss%3Ffamily%3DArchitects%2BDaughter;" vertex="1" parent="1">
          <mxGeometry x="90" y="1900" width="300" height="320" as="geometry" />
        </mxCell>
        <mxCell id="kEkzy4O3QpLZJ2S9Wlrk-137" value="SUGGESTIONS" style="html=1;fillColor=none;strokeColor=none;fontSize=11;align=left;fontColor=#596780;whiteSpace=wrap;fontStyle=1;sketch=1;hachureGap=4;pointerEvents=0;fontFamily=Architects Daughter;fontSource=https%3A%2F%2Ffonts.googleapis.com%2Fcss%3Ffamily%3DArchitects%2BDaughter;" vertex="1" parent="kEkzy4O3QpLZJ2S9Wlrk-136">
          <mxGeometry width="140" height="20" relative="1" as="geometry">
            <mxPoint x="20" y="15" as="offset" />
          </mxGeometry>
        </mxCell>
        <mxCell id="kEkzy4O3QpLZJ2S9Wlrk-138" value="1-click invite phase 1 (SW-3033)" style="html=1;fillColor=none;strokeColor=none;fontSize=12;align=left;fontColor=#596780;whiteSpace=wrap;fontStyle=0;sketch=1;hachureGap=4;pointerEvents=0;fontFamily=Architects Daughter;fontSource=https%3A%2F%2Ffonts.googleapis.com%2Fcss%3Ffamily%3DArchitects%2BDaughter;" vertex="1" parent="kEkzy4O3QpLZJ2S9Wlrk-136">
          <mxGeometry width="330" height="20" relative="1" as="geometry">
            <mxPoint x="20" y="40" as="offset" />
          </mxGeometry>
        </mxCell>
        <mxCell id="kEkzy4O3QpLZJ2S9Wlrk-139" value="ADV - Editable detail review (SW-3033)" style="html=1;fillColor=none;strokeColor=none;fontSize=12;align=left;fontColor=#596780;whiteSpace=wrap;fontStyle=0;sketch=1;hachureGap=4;pointerEvents=0;fontFamily=Architects Daughter;fontSource=https%3A%2F%2Ffonts.googleapis.com%2Fcss%3Ffamily%3DArchitects%2BDaughter;" vertex="1" parent="kEkzy4O3QpLZJ2S9Wlrk-136">
          <mxGeometry width="330" height="20" relative="1" as="geometry">
            <mxPoint x="20" y="65" as="offset" />
          </mxGeometry>
        </mxCell>
        <mxCell id="kEkzy4O3QpLZJ2S9Wlrk-140" value="Bugfix and warranty (SW-3033)" style="html=1;fillColor=none;strokeColor=none;fontSize=12;align=left;fontColor=#596780;whiteSpace=wrap;fontStyle=0;sketch=1;hachureGap=4;pointerEvents=0;fontFamily=Architects Daughter;fontSource=https%3A%2F%2Ffonts.googleapis.com%2Fcss%3Ffamily%3DArchitects%2BDaughter;" vertex="1" parent="kEkzy4O3QpLZJ2S9Wlrk-136">
          <mxGeometry width="330" height="20" relative="1" as="geometry">
            <mxPoint x="20" y="90" as="offset" />
          </mxGeometry>
        </mxCell>
        <mxCell id="kEkzy4O3QpLZJ2S9Wlrk-141" value="Build test release (SW-3033)" style="html=1;fillColor=none;strokeColor=none;fontSize=12;align=left;fontColor=#596780;whiteSpace=wrap;fontStyle=0;sketch=1;hachureGap=4;pointerEvents=0;fontFamily=Architects Daughter;fontSource=https%3A%2F%2Ffonts.googleapis.com%2Fcss%3Ffamily%3DArchitects%2BDaughter;" vertex="1" parent="kEkzy4O3QpLZJ2S9Wlrk-136">
          <mxGeometry width="330" height="20" relative="1" as="geometry">
            <mxPoint x="20" y="115" as="offset" />
          </mxGeometry>
        </mxCell>
        <mxCell id="kEkzy4O3QpLZJ2S9Wlrk-142" value="Burnup chart (SW-3033)" style="html=1;fillColor=none;strokeColor=none;fontSize=12;align=left;fontColor=#596780;whiteSpace=wrap;fontStyle=0;sketch=1;hachureGap=4;pointerEvents=0;fontFamily=Architects Daughter;fontSource=https%3A%2F%2Ffonts.googleapis.com%2Fcss%3Ffamily%3DArchitects%2BDaughter;" vertex="1" parent="kEkzy4O3QpLZJ2S9Wlrk-136">
          <mxGeometry width="330" height="20" relative="1" as="geometry">
            <mxPoint x="20" y="140" as="offset" />
          </mxGeometry>
        </mxCell>
        <mxCell id="kEkzy4O3QpLZJ2S9Wlrk-143" value="Design debt (SW-3033)" style="html=1;fillColor=none;strokeColor=none;fontSize=12;align=left;fontColor=#596780;whiteSpace=wrap;fontStyle=0;sketch=1;hachureGap=4;pointerEvents=0;fontFamily=Architects Daughter;fontSource=https%3A%2F%2Ffonts.googleapis.com%2Fcss%3Ffamily%3DArchitects%2BDaughter;" vertex="1" parent="kEkzy4O3QpLZJ2S9Wlrk-136">
          <mxGeometry width="330" height="20" relative="1" as="geometry">
            <mxPoint x="20" y="165" as="offset" />
          </mxGeometry>
        </mxCell>
        <mxCell id="kEkzy4O3QpLZJ2S9Wlrk-144" value="Engineering health (SW-3033)" style="html=1;fillColor=none;strokeColor=none;fontSize=12;align=left;fontColor=#596780;whiteSpace=wrap;fontStyle=0;sketch=1;hachureGap=4;pointerEvents=0;fontFamily=Architects Daughter;fontSource=https%3A%2F%2Ffonts.googleapis.com%2Fcss%3Ffamily%3DArchitects%2BDaughter;" vertex="1" parent="kEkzy4O3QpLZJ2S9Wlrk-136">
          <mxGeometry width="330" height="20" relative="1" as="geometry">
            <mxPoint x="20" y="190" as="offset" />
          </mxGeometry>
        </mxCell>
        <mxCell id="kEkzy4O3QpLZJ2S9Wlrk-145" value="Feature flag service (SW-3033)" style="html=1;fillColor=none;strokeColor=none;fontSize=12;align=left;fontColor=#596780;whiteSpace=wrap;fontStyle=0;sketch=1;hachureGap=4;pointerEvents=0;fontFamily=Architects Daughter;fontSource=https%3A%2F%2Ffonts.googleapis.com%2Fcss%3Ffamily%3DArchitects%2BDaughter;" vertex="1" parent="kEkzy4O3QpLZJ2S9Wlrk-136">
          <mxGeometry width="330" height="20" relative="1" as="geometry">
            <mxPoint x="20" y="215" as="offset" />
          </mxGeometry>
        </mxCell>
        <mxCell id="kEkzy4O3QpLZJ2S9Wlrk-146" value="Indy ranking (SW-3033)" style="html=1;fillColor=none;strokeColor=none;fontSize=12;align=left;fontColor=#596780;whiteSpace=wrap;fontStyle=0;sketch=1;hachureGap=4;pointerEvents=0;fontFamily=Architects Daughter;fontSource=https%3A%2F%2Ffonts.googleapis.com%2Fcss%3Ffamily%3DArchitects%2BDaughter;" vertex="1" parent="kEkzy4O3QpLZJ2S9Wlrk-136">
          <mxGeometry width="330" height="20" relative="1" as="geometry">
            <mxPoint x="20" y="240" as="offset" />
          </mxGeometry>
        </mxCell>
        <mxCell id="kEkzy4O3QpLZJ2S9Wlrk-147" value="" style="shape=line;strokeWidth=2;html=1;strokeColor=#DFE1E5;resizeWidth=1;sketch=1;hachureGap=4;pointerEvents=0;fontFamily=Architects Daughter;fontSource=https%3A%2F%2Ffonts.googleapis.com%2Fcss%3Ffamily%3DArchitects%2BDaughter;fontSize=20;" vertex="1" parent="kEkzy4O3QpLZJ2S9Wlrk-136">
          <mxGeometry y="1" width="300" height="10" relative="1" as="geometry">
            <mxPoint y="-50" as="offset" />
          </mxGeometry>
        </mxCell>
        <mxCell id="kEkzy4O3QpLZJ2S9Wlrk-148" value="Showing 30 of 3049 matching epics" style="html=1;fillColor=none;strokeColor=none;fontSize=12;align=left;fontColor=#596780;whiteSpace=wrap;fontStyle=0;sketch=1;hachureGap=4;pointerEvents=0;fontFamily=Architects Daughter;fontSource=https%3A%2F%2Ffonts.googleapis.com%2Fcss%3Ffamily%3DArchitects%2BDaughter;" vertex="1" parent="kEkzy4O3QpLZJ2S9Wlrk-136">
          <mxGeometry y="1" width="210" height="20" relative="1" as="geometry">
            <mxPoint x="20" y="-34" as="offset" />
          </mxGeometry>
        </mxCell>
        <mxCell id="kEkzy4O3QpLZJ2S9Wlrk-149" value="Show done epics" style="rounded=1;fillColor=#F0F2F5;strokeColor=#D8DCE3;fontColor=#000000;align=left;verticalAlign=middle;fontStyle=0;fontSize=12;labelPosition=right;verticalLabelPosition=middle;spacingLeft=10;html=1;shadow=0;dashed=0;sketch=1;hachureGap=4;pointerEvents=0;fontFamily=Architects Daughter;fontSource=https%3A%2F%2Ffonts.googleapis.com%2Fcss%3Ffamily%3DArchitects%2BDaughter;" vertex="1" parent="kEkzy4O3QpLZJ2S9Wlrk-136">
          <mxGeometry x="1" y="1" width="12" height="12" relative="1" as="geometry">
            <mxPoint x="-130" y="-30" as="offset" />
          </mxGeometry>
        </mxCell>
        <mxCell id="kEkzy4O3QpLZJ2S9Wlrk-150" value="" style="verticalLabelPosition=bottom;verticalAlign=top;html=1;shadow=0;dashed=0;strokeWidth=1;shape=mxgraph.android.phone2;strokeColor=#c0c0c0;" vertex="1" parent="1">
          <mxGeometry x="460" y="1730" width="330" height="650" as="geometry" />
        </mxCell>
        <mxCell id="kEkzy4O3QpLZJ2S9Wlrk-151" value="UniVoice" style="shape=rectangle;strokeColor=none;fillColor=none;linkText=;fontSize=17;fontColor=#0000ff;fontStyle=4;html=1;align=center;" vertex="1" parent="1">
          <mxGeometry x="550" y="1810" width="150" as="geometry" />
        </mxCell>
        <mxCell id="kEkzy4O3QpLZJ2S9Wlrk-152" value="" style="strokeWidth=1;html=1;shadow=0;dashed=0;shape=mxgraph.android.rrect;rSize=0;fillColor=#eeeeee;strokeColor=none;" vertex="1" parent="1">
          <mxGeometry x="490" y="2280" width="270" height="30" as="geometry" />
        </mxCell>
        <mxCell id="kEkzy4O3QpLZJ2S9Wlrk-153" value="my voice" style="strokeWidth=1;html=1;shadow=0;dashed=0;shape=mxgraph.android.anchor;fontStyle=1;fillColor=#66B2FF;gradientColor=#7ea6e0;strokeColor=#6c8ebf;" vertex="1" parent="kEkzy4O3QpLZJ2S9Wlrk-152">
          <mxGeometry x="-14.999999999999998" width="82.5" height="30" as="geometry" />
        </mxCell>
        <mxCell id="kEkzy4O3QpLZJ2S9Wlrk-154" value="friend" style="strokeWidth=1;html=1;shadow=0;dashed=0;shape=mxgraph.android.rrect;rSize=0;fontStyle=1;strokeColor=none;fillColor=default;" vertex="1" parent="kEkzy4O3QpLZJ2S9Wlrk-152">
          <mxGeometry x="67.5" width="67.5" height="30" as="geometry" />
        </mxCell>
        <mxCell id="kEkzy4O3QpLZJ2S9Wlrk-155" value="" style="strokeWidth=1;html=1;shadow=0;dashed=0;shape=mxgraph.android.rrect;rSize=0;fillColor=#33b5e5;strokeColor=none;" vertex="1" parent="kEkzy4O3QpLZJ2S9Wlrk-154">
          <mxGeometry y="27" width="67.5" height="3" as="geometry" />
        </mxCell>
        <mxCell id="kEkzy4O3QpLZJ2S9Wlrk-156" value="&lt;font color=&quot;#000000&quot;&gt;task&lt;/font&gt;" style="strokeWidth=1;html=1;shadow=0;dashed=0;shape=mxgraph.android.anchor;fontStyle=1;fontColor=#666666;" vertex="1" parent="kEkzy4O3QpLZJ2S9Wlrk-152">
          <mxGeometry x="135" width="67.5" height="30" as="geometry" />
        </mxCell>
        <mxCell id="kEkzy4O3QpLZJ2S9Wlrk-157" value="&lt;font color=&quot;#ff3399&quot;&gt;shop&lt;/font&gt;" style="strokeWidth=1;html=1;shadow=0;dashed=0;shape=mxgraph.android.anchor;fontStyle=1;fontColor=#666666;strokeColor=none;" vertex="1" parent="kEkzy4O3QpLZJ2S9Wlrk-152">
          <mxGeometry x="202.5" width="67.5" height="30" as="geometry" />
        </mxCell>
        <mxCell id="kEkzy4O3QpLZJ2S9Wlrk-158" value="" style="shape=line;strokeColor=#666666;direction=south;" vertex="1" parent="kEkzy4O3QpLZJ2S9Wlrk-152">
          <mxGeometry x="191.9189189189189" y="5" width="14.594594594594597" height="20" as="geometry" />
        </mxCell>
        <mxCell id="kEkzy4O3QpLZJ2S9Wlrk-159" value="Issue" style="html=1;fillColor=none;strokeColor=none;fontSize=11;align=left;fontColor=#596780;whiteSpace=wrap;sketch=1;hachureGap=4;pointerEvents=0;fontFamily=Architects Daughter;fontSource=https%3A%2F%2Ffonts.googleapis.com%2Fcss%3Ffamily%3DArchitects%2BDaughter;" vertex="1" parent="1">
          <mxGeometry x="490" y="1910" width="150" height="20" as="geometry" />
        </mxCell>
        <mxCell id="kEkzy4O3QpLZJ2S9Wlrk-160" value="" style="rounded=1;arcSize=9;fillColor=#ffffff;strokeColor=#4C9AFF;html=1;strokeWidth=2;spacingLeft=5;fontColor=#000000;align=left;sketch=1;hachureGap=4;pointerEvents=0;fontFamily=Architects Daughter;fontSource=https%3A%2F%2Ffonts.googleapis.com%2Fcss%3Ffamily%3DArchitects%2BDaughter;fontSize=20;" vertex="1" parent="1">
          <mxGeometry x="490" y="1935" width="280" height="33" as="geometry" />
        </mxCell>
        <mxCell id="kEkzy4O3QpLZJ2S9Wlrk-161" value="" style="html=1;shadow=0;dashed=0;shape=mxgraph.atlassian.close;fillColor=#97A0AF;strokeColor=none;sketch=0;hachureGap=4;pointerEvents=0;fontFamily=Architects Daughter;fontSource=https%3A%2F%2Ffonts.googleapis.com%2Fcss%3Ffamily%3DArchitects%2BDaughter;fontSize=20;" vertex="1" parent="kEkzy4O3QpLZJ2S9Wlrk-160">
          <mxGeometry x="1" y="0.5" width="14" height="14" relative="1" as="geometry">
            <mxPoint x="-28" y="-7" as="offset" />
          </mxGeometry>
        </mxCell>
        <mxCell id="kEkzy4O3QpLZJ2S9Wlrk-162" value="&lt;font style=&quot;font-size: 23px;&quot;&gt;Comming soon&lt;/font&gt;" style="rounded=1;fillColor=#ffffff;strokeColor=#DFE1E5;shadow=1;arcSize=1;fontSize=12;fontColor=#596780;align=center;html=1;verticalAlign=top;spacingTop=5;sketch=1;hachureGap=4;pointerEvents=0;fontFamily=Architects Daughter;fontSource=https%3A%2F%2Ffonts.googleapis.com%2Fcss%3Ffamily%3DArchitects%2BDaughter;" vertex="1" parent="1">
          <mxGeometry x="490" y="1970" width="280" height="90" as="geometry" />
        </mxCell>
      </root>
    </mxGraphModel>
  </diagram>
</mxfile>
